<?xml version="1.0" encoding="UTF-8" standalone="no"?> <svg xmlns="http://www.w3.org/2000/svg" viewBox="0 0 49.82 47.91"><defs><style>.cls-1{fill:none;stroke:#333;stroke-linecap:round;stroke-linejoin:round;stroke-width:2px;}</style></defs><title>Asset 16</title><g id="Layer_2" data-name="Layer 2"><g id="Layer_2-2" data-name="Layer 2"><path class="cls-1" d="M24.91,39.4h-13c-.64,0-1.07-.86-.82-1.63L23.79,1.82a1.18,1.18,0,0,1,2.24,0l12.72,36c.24.77-.19,1.63-.82,1.63h-13Z"/><line class="cls-1" x1="25" y1="39.91" x2="25" y2="46.91"/><path class="cls-1" d="M35.67,29.07l3.59-10.71a.75.75,0,0,1,1.42,0L48.77,42.5c.16.49-.11,1-.52,1H31.69c-.4,0,.69-3.65.84-4.14"/><line class="cls-1" x1="40" y1="43.91" x2="40" y2="46.91"/><path class="cls-1" d="M14.15,29.07,10.56,18.36a.75.75,0,0,0-1.43,0L1,42.5c-.15.49.12,1,.53,1H18.13c.4,0-.69-3.65-.85-4.14"/><line class="cls-1" x1="10" y1="43.91" x2="10" y2="46.91"/></g></g></svg>